<svg width="117" height="117" viewBox="0 0 117 117" fill="none" xmlns="http://www.w3.org/2000/svg">
<circle cx="58.5" cy="58.5" r="53.5" fill="#F47923" stroke="#121212" stroke-width="10"/>
<path d="M73.1797 80.9999H42.9059C42.8499 80.9695 42.7905 80.9458 42.7289 80.9292C41.5874 80.7514 40.6726 80.1976 39.9458 79.2982C39.4178 78.6497 39.1887 77.8831 39 77.0933V58.4409C39.0338 58.3691 39.0621 58.2949 39.0846 58.2188C39.4069 56.7129 40.2774 55.6558 41.6689 55.0027C41.8025 54.9397 41.9174 54.6842 41.919 54.5172C41.9345 52.1251 41.9275 49.733 41.9306 47.3417C41.9306 45.574 42.1574 43.8358 42.7219 42.1574C44.0335 38.2524 46.4547 35.2226 50.0267 33.1644C53.5988 31.1063 57.4325 30.5222 61.4619 31.3882C65.0138 32.147 67.9731 33.9512 70.326 36.7146C72.1897 38.8993 73.4608 41.4056 73.8499 44.2552C74.0999 46.0827 74.0828 47.9482 74.1481 49.7982C74.1869 50.9407 73.5905 51.5069 72.4475 51.5069C70.6739 51.5069 68.9003 51.5069 67.1267 51.5069C65.9153 51.5069 65.3811 50.9632 65.364 49.7516C65.3469 48.5167 65.4005 47.271 65.2584 46.0493C64.8297 42.3648 61.4572 39.6348 57.6414 39.801C53.9917 39.9564 50.8537 43.0459 50.7466 46.6986C50.6689 49.2996 50.7295 51.9022 50.7295 54.5079C50.7295 54.5359 50.7559 54.5631 50.7916 54.6322H51.3468C58.3765 54.6322 65.4062 54.6322 72.4358 54.6322C75.1319 54.6322 77.0686 56.4659 77.0795 59.1011C77.1043 64.9098 77.095 70.7192 77.0795 76.5286C77.0795 78.0152 76.5087 79.2866 75.2585 80.1176C74.6427 80.5292 73.8778 80.7133 73.1797 80.9999ZM56.5783 71.5246C56.5783 72.1755 56.5783 72.8271 56.5783 73.4779C56.5837 74.4759 57.1646 75.1361 58.0359 75.1408C58.9071 75.1454 59.5004 74.4759 59.5066 73.4834C59.5113 72.1164 59.5136 70.7495 59.5027 69.3833C59.5027 69.1286 59.5579 68.9873 59.8133 68.8653C62.3029 67.6825 63.1742 64.9463 61.7616 62.5969C60.8655 61.1065 59.4647 60.3943 57.7338 60.5278C55.8802 60.6707 54.55 61.6532 53.9358 63.4178C53.1468 65.6701 54.1058 67.8448 56.2607 68.8614C56.5069 68.9772 56.5915 69.1045 56.5845 69.3709C56.5659 70.0886 56.5783 70.8054 56.5783 71.5207V71.5246Z" fill="#1E1E1E"/>
<path d="M81.6937 48.7243C81.0539 48.6715 80.5072 48.2808 80.3006 47.689C80.1992 47.4034 80.1901 47.0931 80.2747 46.8021C80.3593 46.5111 80.5333 46.254 80.772 46.0673C80.9031 45.9714 81.043 45.8882 81.1898 45.8188C83.0332 44.8935 84.8778 43.9701 86.7233 43.0484C87.4579 42.6834 88.0776 42.758 88.566 43.248C89.2649 43.947 89.1049 45.0662 88.2119 45.5633C87.5309 45.9415 86.8227 46.2716 86.1262 46.6203C84.921 47.2245 83.7189 47.8311 82.5068 48.4253C82.2528 48.5526 81.9655 48.6303 81.6937 48.7243Z" fill="#1E1E1E"/>
<path d="M88.9976 61.7892C88.9851 62.8548 88.0137 63.5631 87.0896 63.233C86.6183 63.0645 86.1757 62.8144 85.7253 62.5899C84.1839 61.8234 82.6409 61.0568 81.1065 60.2801C80.4557 59.9501 80.1381 59.3683 80.2243 58.74C80.3066 58.1435 80.7275 57.6325 81.3363 57.53C81.6524 57.4764 82.0352 57.502 82.3217 57.6387C84.2809 58.5847 86.223 59.5672 88.1667 60.5442C88.7087 60.816 88.9743 61.2758 88.9976 61.7892Z" fill="#1E1E1E"/>
<path d="M84.5823 54.5323C83.6505 54.5323 82.7272 54.5385 81.7992 54.5323C80.8557 54.5238 80.2004 53.9032 80.2143 53.0473C80.2268 52.2085 80.8713 51.6105 81.7953 51.6066C83.6668 51.5999 85.5382 51.5999 87.4097 51.6066C88.3508 51.6105 89.0093 52.2373 88.9953 53.0916C88.9829 53.9265 88.3337 54.5245 87.4135 54.5323C86.4708 54.5401 85.5266 54.5323 84.5823 54.5323Z" fill="#1E1E1E"/>
</svg>
