<svg width="117" height="117" viewBox="0 0 117 117" fill="none" xmlns="http://www.w3.org/2000/svg">
<circle cx="58.5" cy="58.5" r="53.5" transform="matrix(-1 0 0 1 117 0)" fill="#F47923" stroke="#121212" stroke-width="10"/>
<path d="M60.5693 83.9996H57.4433C57.2847 83.9662 57.1303 83.9328 56.9717 83.9078C55.9283 83.7575 54.8849 83.6699 53.8415 83.4488C48.4327 82.3587 43.5586 79.4539 40.0268 75.2156C34.7847 68.9562 32.9316 61.7829 34.6011 53.8001C35.9533 47.2403 39.5301 42.07 45.0351 38.3102C50.5401 34.5504 56.5794 33.3027 63.1069 34.3501C67.7478 35.0795 72.0748 37.1476 75.5568 40.3007C79.8212 44.0268 82.668 49.1107 83.6161 54.6931C83.7789 55.6028 83.8748 56.525 84.0001 57.4389V60.5644C83.9637 60.6873 83.9372 60.8129 83.9208 60.94C83.66 64.7833 82.4714 68.5061 80.4566 71.7896C76.4875 78.2409 70.7738 82.2219 63.3072 83.6157C62.4016 83.7868 61.4834 83.8702 60.5693 83.9996ZM52.7062 56.187L52.3181 56.0034C50.4956 55.1188 48.6703 54.2313 46.8423 53.3411C46.5696 53.1724 46.2524 53.0901 45.9321 53.1049C45.6118 53.1197 45.3035 53.231 45.0476 53.4241C44.7917 53.6173 44.6001 53.8833 44.4981 54.1872C44.3961 54.4911 44.3883 54.8187 44.4758 55.1271C45.1979 59.3251 45.9116 63.523 46.642 67.7168C46.8673 69.0355 47.3515 69.4235 48.687 69.4235C53.5674 69.4235 58.4477 69.4235 63.3281 69.4235C65.4149 69.4235 67.5017 69.4235 69.5885 69.4235C69.8007 69.4459 70.0151 69.4252 70.219 69.3625C70.4229 69.2999 70.6121 69.1966 70.775 69.059C70.938 68.9214 71.0715 68.7523 71.1674 68.5618C71.2633 68.3713 71.3197 68.1634 71.3331 67.9505C71.7505 65.5636 72.1678 63.1767 72.5852 60.7898C72.9066 58.9161 73.2238 57.0341 73.5493 55.1688C73.6662 54.4845 73.5785 53.8627 72.9775 53.4204C72.7127 53.2274 72.3959 53.1186 72.0683 53.1082C71.7408 53.0978 71.4177 53.1862 71.1411 53.362C70.5026 53.6874 69.8598 53.9962 69.2171 54.3092L65.344 56.1912C65.2396 56.0118 65.1478 55.8574 65.0643 55.703C63.5229 52.9627 61.9925 50.2211 60.4733 47.4781C60.3269 47.1708 60.0857 46.9186 59.7852 46.7586C59.4846 46.5986 59.1407 46.5392 58.8039 46.5893C58.5349 46.6162 58.2777 46.7132 58.058 46.8706C57.8382 47.0281 57.6637 47.2404 57.5518 47.4865C55.9408 50.37 54.3381 53.2535 52.7062 56.187Z" fill="#1E1E1E"/>
</svg>
