<svg width="117" height="117" viewBox="0 0 117 117" fill="none" xmlns="http://www.w3.org/2000/svg">
<circle cx="58.5" cy="58.5" r="53.5" transform="matrix(-1 0 0 1 117 0)" fill="#F47923" stroke="#121212" stroke-width="10"/>
<path d="M34.0004 62.4694C34.051 62.2596 34.1116 61.9099 34.2228 61.5801C35.5101 57.6832 36.7838 53.7862 38.0441 49.8892L42.3607 36.8394C42.5427 36.2899 42.8763 36.0001 43.3716 36.0001C43.6139 35.997 43.8493 36.0801 44.0349 36.2341C44.2204 36.3882 44.3438 36.603 44.3826 36.8394C45.4474 40.2301 46.5392 43.6141 47.6579 46.9915C48.3251 48.9899 49.0025 50.9884 49.6798 53.0568C49.791 53.4165 49.9729 53.5064 50.3369 53.5064C56.1395 53.5064 61.9355 53.5064 67.7247 53.5064C67.8743 53.5269 68.0262 53.4895 68.1486 53.402C68.271 53.3145 68.3545 53.1837 68.3817 53.0368C69.514 49.5595 70.6563 46.0822 71.8088 42.6049L73.7194 36.7395C73.776 36.5315 73.8991 36.3471 74.0703 36.2138C74.2416 36.0806 74.4518 36.0056 74.6697 36.0001C74.8884 36.009 75.0984 36.0878 75.2679 36.2247C75.4375 36.3617 75.5574 36.5493 75.6098 36.7595C75.994 37.8886 76.3579 39.0277 76.7319 40.1668C77.7428 43.1645 78.6729 46.0722 79.6333 49.0199L82.939 59.1121C83.2726 60.1113 83.6264 61.1105 83.9499 62.1697C84.0591 62.5411 84.042 62.9376 83.9015 63.2986C83.7609 63.6595 83.5044 63.965 83.1715 64.1681C80.26 66.2665 77.3284 68.3548 74.4169 70.4432L63.5496 78.2871C62.1444 79.2863 60.7392 80.2855 59.3441 81.2848C59.249 81.3711 59.1245 81.4191 58.9954 81.4191C58.8662 81.4191 58.7417 81.3711 58.6466 81.2848C56.2204 79.5128 53.7875 77.7508 51.3478 75.9989C48.9115 74.2602 46.4752 72.5316 44.049 70.783L36.6996 65.527C36.093 65.0974 35.4966 64.6577 34.89 64.2381C34.5994 64.0447 34.3647 63.78 34.2087 63.47C34.0528 63.1599 33.981 62.8151 34.0004 62.4694Z" fill="#1E1E1E"/>
</svg>
