<svg width="117" height="117" viewBox="0 0 117 117" fill="none" xmlns="http://www.w3.org/2000/svg">
<circle cx="58.5" cy="58.5" r="53.5" fill="#F47923" stroke="#121212" stroke-width="10"/>
<path d="M81.9999 60.8404C82.1885 64.7935 81.443 68.7353 79.8244 72.3435C77.9301 76.2248 74.8804 79.4175 71.0982 81.4788C67.316 83.54 62.989 84.3676 58.7175 83.8466C54.3068 83.3325 50.1846 81.3828 46.9801 78.295C43.7755 75.2073 41.6646 71.1511 40.9694 66.7453C39.9412 61.507 40.2831 56.0903 41.9618 51.0245C43.5104 46.7184 46.4386 43.0508 50.2866 40.5974C54.1347 38.144 58.6847 37.0438 63.2225 37.4694C67.7604 37.895 72.0291 39.8223 75.3586 42.9489C78.688 46.0754 80.8898 50.2241 81.6183 54.7438C81.8473 56.7377 81.8473 58.7315 81.9999 60.8404ZM70.8931 65.9018C71.7217 65.7777 72.5387 65.5853 73.3358 65.3266C74.4771 65.0491 75.5304 64.4871 76.3982 63.6924C77.266 62.8977 77.9204 61.8961 78.3008 60.7801C78.6813 59.664 78.7755 58.4697 78.5748 57.3074C78.3741 56.1451 77.885 55.0524 77.1526 54.1303C75.8746 52.0293 74.0004 50.3602 71.7709 49.3374C68.6576 47.8047 65.2591 46.9446 61.7946 46.8125C58.33 46.6804 54.8764 47.2793 51.6564 48.5705C49.7415 49.199 48.0144 50.3008 46.6339 51.7748C45.2533 53.2488 44.2636 55.0476 43.7557 57.0061C43.4845 57.9542 43.4436 58.9539 43.6361 59.9212C43.8287 60.8885 44.2493 61.7954 44.8625 62.5659C45.5431 63.4664 46.3961 64.2209 47.3713 64.7852C48.3466 65.3494 49.4243 65.7119 50.5412 65.8512C51.658 65.9906 52.7913 65.904 53.8743 65.5966C54.9573 65.2892 55.9682 64.7672 56.8473 64.0613C57.4076 63.4955 58.0738 63.0466 58.8074 62.7403C59.541 62.4339 60.3276 62.2762 61.1221 62.2762C61.9165 62.2762 62.7032 62.4339 63.4368 62.7403C64.1704 63.0466 64.8365 63.4955 65.3969 64.0613C66.9838 65.2535 68.9115 65.899 70.8931 65.9018Z" fill="#1E1E1E"/>
<path d="M42.458 45.5032C42.4335 44.9743 42.3055 44.4554 42.0811 43.9763C41.8567 43.4972 41.5405 43.0672 41.1505 42.7111C40.7605 42.3549 40.3045 42.0795 39.8084 41.9007C39.3123 41.7218 38.786 41.6431 38.2595 41.6688H32C32.3105 42.709 32.8584 43.6621 33.6001 44.4521C34.3417 45.2422 35.2567 45.8474 36.2722 46.2198C37.2877 46.5921 38.3756 46.7212 39.4495 46.5968C40.5234 46.4724 41.5535 46.0979 42.458 45.5032Z" fill="#1E1E1E"/>
<path d="M38.6413 34C38.2009 35.6061 38.2009 37.3019 38.6413 38.908C38.6831 39.0392 38.7576 39.1574 38.8579 39.2514C38.9581 39.3454 39.0807 39.412 39.2138 39.4448C40.3178 39.5598 41.3687 39.9786 42.2509 40.6552C43.1331 41.3317 43.8123 42.2397 44.2138 43.2791C45.6642 42.3206 46.0459 41.477 45.3207 39.9816C44.7514 39.0365 44.0139 38.2047 43.1451 37.5276C41.7329 36.3006 40.2062 35.1887 38.6413 34Z" fill="#1E1E1E"/>
<path d="M60.8167 48.9543C64.927 48.9039 68.966 50.0347 72.4579 52.2135C74.3484 53.388 75.7671 55.1934 76.4655 57.3132C76.7149 58.0508 76.7542 58.8438 76.5788 59.6026C76.4035 60.3614 76.0205 61.0559 75.4732 61.6077C74.3356 62.8898 72.7427 63.6724 71.0369 63.7871C69.3311 63.9018 67.6486 63.3396 66.351 62.2212C65.2538 61.2615 63.9141 60.6247 62.4796 60.3812C61.0451 60.1376 59.5715 60.2967 58.2213 60.8408C57.307 61.2169 56.4571 61.7344 55.7022 62.3746C54.4814 63.3485 52.9461 63.8362 51.3898 63.7442C49.8336 63.6522 48.3658 62.9871 47.2671 61.8761C46.5502 61.3176 46.0249 60.548 45.7649 59.6749C45.5048 58.8017 45.5229 57.8688 45.8167 57.0065C46.2666 55.6316 47.0081 54.3711 47.9899 53.3119C48.9717 52.2528 50.1706 51.4202 51.5037 50.8715C54.4305 49.5542 57.61 48.8997 60.8167 48.9543ZM53.4503 58.4635C53.6068 58.7541 53.829 59.0036 54.0991 59.1921C54.3099 59.2839 54.5373 59.3312 54.7671 59.3312C54.9968 59.3312 55.2242 59.2839 55.435 59.1921C55.5924 59.0431 55.7047 58.8524 55.7587 58.6421C55.8127 58.4317 55.8064 58.2103 55.7403 58.0034C55.1369 56.9261 54.1745 56.097 53.0226 55.6622C51.8707 55.2274 50.603 55.2146 49.4426 55.6261C49.271 55.73 49.1284 55.876 49.0283 56.0503C48.9281 56.2247 48.8737 56.4218 48.8701 56.623C48.8701 57.0065 49.4045 57.3132 49.7861 57.4666C50.0693 57.5724 50.3809 57.5724 50.664 57.4666C51.0075 58.0801 51.2365 58.8086 51.58 58.8853C51.9236 58.962 52.6869 58.6936 53.4503 58.4635ZM71.0075 57.62C71.2324 57.682 71.4697 57.682 71.6945 57.62C72.0762 57.62 72.6106 57.1599 72.6487 56.8531C72.6615 56.6332 72.615 56.4139 72.5143 56.2183C72.4135 56.0226 72.2622 55.8578 72.0762 55.7411C70.9245 55.3441 69.6715 55.3601 68.5303 55.7866C67.3891 56.213 66.4301 57.0235 65.8167 58.0801C65.7887 58.3251 65.823 58.5732 65.9164 58.8012C66.0099 59.0292 66.1594 59.2297 66.351 59.3838C66.6182 59.3838 67.2671 59.3838 67.6487 59.3838C67.93 59.1808 68.1644 58.9193 68.3358 58.6169C69.0228 58.8853 69.5953 59.3454 70.0533 59.2304C70.5113 59.1154 70.5113 58.2335 71.0075 57.62Z" fill="#1E1E1E"/>
</svg>
