<svg width="30" height="24" viewBox="0 0 30 24" fill="none" xmlns="http://www.w3.org/2000/svg">
<path d="M29.9989 22.8624C29.0182 22.6674 28.0424 22.4088 27.0515 22.2913C23.9561 21.9181 20.9433 22.3125 18.0209 23.3993C17.9759 23.4164 17.9289 23.4299 17.8828 23.4429C17.8746 23.4454 17.8644 23.4389 17.801 23.4213C18.1341 23.1198 18.4328 22.8253 18.7564 22.5602C21.3025 20.4752 24.2181 19.3701 27.5161 19.2922C28.2557 19.2746 28.4837 19.0433 28.4837 18.2976V4.03906L30.0001 4.50003L29.9989 22.8624Z" fill="#F47923"/>
<path d="M2.92334 0.0546875C4.38212 0.156212 5.81787 0.472378 7.18407 0.992939C10.0605 2.09137 12.3913 3.89513 14.1765 6.40421C14.2747 6.54412 14.3302 6.70949 14.3362 6.88027C14.3444 12.3654 14.3466 17.8505 14.3428 23.3356V23.6733C11.2842 20.1602 7.49381 18.2686 2.92334 17.941V0.0546875Z" fill="#F47923"/>
<path d="M27.1114 0V17.9398C22.5425 18.2731 18.7558 20.1565 15.7254 23.637C15.7152 23.5285 15.7021 23.4571 15.7021 23.3857C15.7021 17.8693 15.7035 12.353 15.7062 6.83659C15.7089 6.69416 15.7525 6.5555 15.8321 6.43722C17.9992 3.36683 20.9087 1.37352 24.5607 0.457296C25.3878 0.251288 26.2418 0.152976 27.1114 0Z" fill="#F47923"/>
<path d="M12.1897 23.3794C8.19333 21.9382 4.14999 21.7448 0.0220657 22.8291C0.0159364 22.7275 0.006538 22.6447 0.006538 22.5619C0.00599316 16.6267 0.00381383 10.6915 0 4.75634C0 4.52504 0.0780473 4.43652 0.28808 4.38267C0.691802 4.27864 1.08898 4.15055 1.52254 4.02246V4.39613C1.52254 9.04496 1.52403 13.6937 1.52703 18.3422C1.52366 18.5349 1.56025 18.7261 1.6345 18.904C1.78079 19.2254 2.09584 19.2625 2.4068 19.2678C3.50961 19.2838 4.60675 19.4286 5.6758 19.6994C8.1398 20.3289 10.2818 21.5331 12.1116 23.2942C12.1411 23.3203 12.1643 23.3509 12.1897 23.3794Z" fill="#F47923"/>
</svg>
