<svg width="100" height="100" viewBox="0 0 100 100" fill="none" xmlns="http://www.w3.org/2000/svg">
<path fill-rule="evenodd" clip-rule="evenodd" d="M50.0002 4.16663C75.3127 4.16663 95.8335 24.6875 95.8335 50C95.8335 75.3125 75.3127 95.8333 50.0002 95.8333C24.6877 95.8333 4.16682 75.3125 4.16682 50C4.16682 24.6875 24.6877 4.16663 50.0002 4.16663ZM45.8335 29.1666C45.8335 28.0616 46.2725 27.0018 47.0539 26.2204C47.8353 25.4389 48.8951 25 50.0002 25C51.1052 25 52.165 25.4389 52.9464 26.2204C53.7278 27.0018 54.1668 28.0616 54.1668 29.1666V54.1666C54.1668 55.2717 53.7278 56.3315 52.9464 57.1129C52.165 57.8943 51.1052 58.3333 50.0002 58.3333C48.8951 58.3333 47.8353 57.8943 47.0539 57.1129C46.2725 56.3315 45.8335 55.2717 45.8335 54.1666V29.1666ZM45.8335 68.75C45.8335 67.6449 46.2725 66.5851 47.0539 65.8037C47.8353 65.0223 48.8951 64.5833 50.0002 64.5833C51.1052 64.5833 52.165 65.0223 52.9464 65.8037C53.7278 66.5851 54.1668 67.6449 54.1668 68.75V70.8333C54.1668 71.9384 53.7278 72.9982 52.9464 73.7796C52.165 74.561 51.1052 75 50.0002 75C48.8951 75 47.8353 74.561 47.0539 73.7796C46.2725 72.9982 45.8335 71.9384 45.8335 70.8333V68.75Z" fill="white"/>
</svg>
