<svg width="30" height="30" viewBox="0 0 30 30" fill="none" xmlns="http://www.w3.org/2000/svg">
<path d="M0 22.4418C0.121719 21.8916 0.207476 21.3304 0.373111 20.7941C0.707148 19.7118 1.31816 18.7885 2.11729 17.9894C4.19447 15.9109 6.26232 13.8226 8.35126 11.7569C10.7372 9.39654 14.1869 8.97018 17.0068 10.6818C17.6483 11.0709 18.2783 11.5017 18.6493 12.1878C19.0836 12.9914 18.8935 14.0032 18.2309 14.5626C17.4913 15.1871 16.4352 15.2255 15.6886 14.6532C15.5804 14.5702 15.4753 14.4824 15.3726 14.3922C14.8232 13.9053 14.1147 13.6362 13.3806 13.6354C12.6465 13.6346 11.9374 13.9023 11.387 14.388C11.2113 14.5426 11.0484 14.7117 10.8825 14.8773C8.89992 16.8578 6.9184 18.8387 4.93793 20.82C3.86078 21.9003 3.69307 23.5003 4.51883 24.6981C5.59286 26.2583 7.77897 26.4457 9.15834 25.0836C10.3392 23.9176 11.5059 22.7371 12.6789 21.5628C12.7411 21.5009 12.8037 21.4394 12.8659 21.3771C13.0354 21.2084 13.2339 21.162 13.4566 21.2478C14.5243 21.6612 15.6606 21.8687 16.8056 21.8595C17.0272 21.8595 17.2015 21.9553 17.2942 22.1679C17.3868 22.3806 17.3201 22.5725 17.168 22.7302C16.8913 23.0182 16.6053 23.2997 16.3214 23.5819C14.7785 25.1175 13.2518 26.6701 11.6854 28.1809C10.6366 29.193 9.34438 29.7418 7.90207 29.9382C7.80663 29.951 7.71361 29.9783 7.61956 29.999H6.44732C6.34358 29.9793 6.23984 29.9568 6.13265 29.9402C3.39535 29.5121 1.48311 28.0273 0.467513 25.4502C0.231336 24.8492 0.151803 24.1877 0 23.5549V22.4418Z" fill="#F47923"/>
<path d="M16.2751 20.3552C14.5136 20.2747 12.8548 19.5945 11.5622 18.1512C10.8935 17.4053 10.9713 16.2555 11.6615 15.5366C12.3289 14.8423 13.5077 14.7476 14.2874 15.3458C14.7512 15.7019 15.1803 16.0958 15.7744 16.2479C16.8463 16.5246 17.8145 16.3392 18.633 15.5878C19.2942 14.9806 19.9152 14.3295 20.5515 13.695C22.0515 12.1984 23.55 10.7 25.0468 9.19971C26.3262 7.91303 26.2834 5.95621 24.9662 4.77361C23.7981 3.72483 21.9924 3.78776 20.8288 4.9344C19.6397 6.10732 18.46 7.28888 17.2896 8.47909C16.995 8.77958 16.7198 8.85185 16.3269 8.69486C15.3463 8.30308 14.3165 8.14575 13.2625 8.14644C13.018 8.14644 12.8202 8.07728 12.7124 7.84041C12.6017 7.59836 12.694 7.40334 12.8649 7.23321C14.6931 5.41539 16.4829 3.55712 18.3599 1.79152C21.0916 -0.776657 25.5835 -0.542904 28.1136 2.23067C30.492 4.84104 30.6372 8.59839 28.4612 11.3744C28.3032 11.5732 28.1333 11.7624 27.9525 11.9408C25.8207 14.0767 23.702 16.2258 21.547 18.3379C19.9692 19.8846 18.4007 20.3155 16.2751 20.3552Z" fill="#F47923"/>
</svg>
