<svg width="23" height="24" viewBox="0 0 23 24" fill="none" xmlns="http://www.w3.org/2000/svg">
<path d="M11.1504 24C10.7246 24 10.2786 23.8976 9.85291 23.8158C8.03083 23.4956 6.30794 22.7502 4.82143 21.639C3.33492 20.5278 2.12586 19.0814 1.29053 17.4151C0.455195 15.7488 0.0166606 13.9085 0.00984628 12.0409C0.00303195 10.1732 0.428126 8.32973 1.25128 6.65724C2.07443 4.98475 3.2729 3.52944 4.75126 2.40721C6.22962 1.28497 7.94702 0.526798 9.76672 0.193072C11.5864 -0.140655 13.4581 -0.0407204 15.2329 0.484917C17.0076 1.01055 18.6362 1.94737 19.9892 3.22078C20.0618 3.28373 20.1296 3.35216 20.1919 3.4255L20.3135 2.19717L21.7123 2.32001L21.388 6.00499L17.7186 5.69791L17.8403 4.28533L19.158 4.38769C17.6455 2.90966 15.7266 1.92674 13.6522 1.5674C11.5778 1.20806 9.44428 1.489 7.53047 2.37351C5.61666 3.25802 4.01157 4.70496 2.92496 6.52525C1.83835 8.34554 1.32076 10.4545 1.43983 12.5765C1.59244 14.9882 2.55611 17.2748 4.17126 19.0579C5.78642 20.8409 7.95618 22.0134 10.3213 22.3812C12.6864 22.7491 15.1049 22.2901 17.1765 21.0804C19.248 19.8707 20.8483 17.9828 21.7123 15.7293L23.0098 16.2206C22.8273 16.63 22.6651 17.0599 22.4624 17.4489C21.5838 19.2224 20.2794 20.7455 18.6682 21.8791C17.057 23.0127 15.1902 23.7207 13.2384 23.9386H12.5492L11.1504 24Z" fill="#C4C4C4"/>
<path d="M4.60257 12.0037C4.60257 10.5452 5.03112 9.1195 5.83394 7.90708C6.63677 6.69465 7.77777 5.75004 9.11251 5.19283C10.4472 4.63562 11.9157 4.49087 13.3319 4.77691C14.7482 5.06294 16.0485 5.7669 17.0684 6.79966C18.0882 7.83242 18.7817 9.14753 19.061 10.5785C19.3403 12.0095 19.1929 13.492 18.6374 14.8383C18.0819 16.1846 17.1433 17.3342 15.9405 18.1416C14.7377 18.949 13.3247 19.3778 11.8804 19.3737C10.9229 19.3737 9.97491 19.1829 9.0906 18.8123C8.20629 18.4417 7.40309 17.8985 6.72701 17.2139C6.05094 16.5292 5.51528 15.7166 5.15073 14.8226C4.78618 13.9285 4.5999 12.9706 4.60257 12.0037ZM17.7797 12.0037C17.7797 10.8246 17.4332 9.67199 16.7841 8.69187C16.1349 7.71174 15.2124 6.94818 14.1333 6.49789C13.0541 6.0476 11.8669 5.93082 10.722 6.16235C9.57712 6.39388 8.52601 6.96331 7.70179 7.79851C6.87757 8.63372 6.31732 9.69714 6.09199 10.8541C5.86666 12.0111 5.98638 13.2095 6.43599 14.2977C6.88561 15.386 7.64489 16.315 8.61769 16.9671C9.59049 17.6192 10.733 17.9652 11.9007 17.9611C13.4617 17.9557 14.957 17.3257 16.059 16.209C17.161 15.0924 17.7797 13.5802 17.7797 12.0037Z" fill="#C4C4C4"/>
<path d="M12.5895 7.66309V11.2867H14.6167V12.6992H11.2109V7.66309H12.5895Z" fill="#C4C4C4"/>
</svg>
