<svg width="130" height="130" viewBox="0 0 130 130" fill="none" xmlns="http://www.w3.org/2000/svg">
<g clip-path="url(#clip0_1767_2097)">
<path d="M65.3334 24C56.7628 24 48.3848 26.5415 41.2586 31.303C34.1325 36.0645 28.5784 42.8323 25.2986 50.7504C22.0188 58.6685 21.1606 67.3814 22.8327 75.7872C24.5047 84.1931 28.6318 91.9144 34.6921 97.9746C40.7523 104.035 48.4736 108.162 56.8794 109.834C65.2853 111.506 73.9982 110.648 81.9163 107.368C89.8344 104.088 96.6022 98.5342 101.364 91.408C106.125 84.2819 108.667 75.9039 108.667 67.3333C108.654 55.8446 104.084 44.8301 95.9604 36.7063C87.8366 28.5825 76.8221 24.0129 65.3334 24ZM65.3334 107.571C57.375 107.571 49.5954 105.212 42.9783 100.79C36.3611 96.3687 31.2037 90.0843 28.1582 82.7318C25.1127 75.3792 24.3158 67.2887 25.8684 59.4833C27.421 51.6778 31.2533 44.5081 36.8807 38.8807C42.5081 33.2533 49.6779 29.421 57.4833 27.8684C65.2887 26.3158 73.3793 27.1127 80.7318 30.1582C88.0844 33.2037 94.3687 38.3611 98.7901 44.9782C103.212 51.5954 105.571 59.375 105.571 67.3333C105.559 78.0014 101.316 88.2291 93.7726 95.7726C86.2291 103.316 76.0015 107.559 65.3334 107.571Z" fill="#D0342C"/>
<path d="M116.63 113.683H82.2264C93.1177 109.642 102.242 101.901 108.004 91.814C113.765 81.7267 115.797 69.935 113.745 58.501C111.692 47.067 105.685 36.7184 96.7744 29.2651C87.8639 21.8118 76.6168 17.728 65 17.728C53.3832 17.728 42.1361 21.8118 33.2255 29.2651C24.315 36.7184 18.3082 47.067 16.2555 58.501C14.2028 69.935 16.2349 81.7267 21.9964 91.814C27.758 101.901 36.8822 109.642 47.7736 113.683H13.3704C13.1502 113.654 12.9265 113.673 12.714 113.737C12.5016 113.802 12.3054 113.911 12.1385 114.058C11.9717 114.204 11.838 114.385 11.7464 114.587C11.6548 114.789 11.6074 115.009 11.6074 115.231C11.6074 115.453 11.6548 115.672 11.7464 115.875C11.838 116.077 11.9717 116.257 12.1385 116.404C12.3054 116.55 12.5016 116.659 12.714 116.724C12.9265 116.789 13.1502 116.807 13.3704 116.778H116.63C116.85 116.807 117.074 116.789 117.286 116.724C117.498 116.659 117.695 116.55 117.861 116.404C118.028 116.257 118.162 116.077 118.254 115.875C118.345 115.672 118.393 115.453 118.393 115.231C118.393 115.009 118.345 114.789 118.254 114.587C118.162 114.385 118.028 114.204 117.861 114.058C117.695 113.911 117.498 113.802 117.286 113.737C117.074 113.673 116.85 113.654 116.63 113.683ZM18.5714 67.2545C18.5714 58.0718 21.2944 49.0953 26.396 41.4602C31.4977 33.825 38.7488 27.8742 47.2325 24.3601C55.7163 20.846 65.0515 19.9266 74.0578 21.7181C83.064 23.5095 91.3368 27.9314 97.8299 34.4246C104.323 40.9177 108.745 49.1905 110.536 58.1967C112.328 67.203 111.408 76.5383 107.894 85.022C104.38 93.5057 98.4295 100.757 90.7943 105.858C83.1592 110.96 74.1827 113.683 65 113.683C52.6907 113.669 40.8895 108.773 32.1854 100.069C23.4814 91.365 18.5854 79.5639 18.5714 67.2545ZM68.4821 13.6682C68.9413 13.6682 69.3901 13.5321 69.7719 13.277C70.1536 13.0219 70.4512 12.6593 70.6269 12.2351C70.8026 11.811 70.8485 11.3442 70.759 10.8939C70.6694 10.4436 70.4483 10.0299 70.1236 9.70527C69.799 9.38062 69.3853 9.15952 68.935 9.06995C68.4847 8.98038 68.018 9.02635 67.5938 9.20205C67.1696 9.37776 66.807 9.6753 66.5519 10.0571C66.2969 10.4388 66.1607 10.8876 66.1607 11.3468C66.1614 11.9622 66.4062 12.5523 66.8414 12.9875C67.2766 13.4227 67.8667 13.6675 68.4821 13.6682ZM68.4821 10.1861C68.7117 10.1861 68.9361 10.2541 69.127 10.3817C69.3179 10.5092 69.4666 10.6905 69.5545 10.9026C69.6423 11.1147 69.6653 11.3481 69.6205 11.5732C69.5758 11.7984 69.4652 12.0052 69.3029 12.1675C69.1406 12.3299 68.9337 12.4404 68.7086 12.4852C68.4834 12.53 68.25 12.507 68.0379 12.4191C67.8259 12.3313 67.6446 12.1825 67.517 11.9916C67.3895 11.8008 67.3214 11.5763 67.3214 11.3468C67.3217 11.039 67.4441 10.744 67.6617 10.5264C67.8793 10.3087 68.1744 10.1864 68.4821 10.1861ZM122.498 52.5521C122.192 52.5521 121.892 52.6429 121.638 52.813C121.383 52.983 121.185 53.2247 121.068 53.5075C120.951 53.7903 120.92 54.1015 120.98 54.4017C121.04 54.7019 121.187 54.9776 121.403 55.1941C121.62 55.4105 121.896 55.5579 122.196 55.6176C122.496 55.6773 122.807 55.6467 123.09 55.5296C123.373 55.4124 123.614 55.2141 123.784 54.9596C123.955 54.7051 124.045 54.4058 124.045 54.0998C124.045 53.6894 123.882 53.2961 123.592 53.0059C123.301 52.7158 122.908 52.5526 122.498 52.5521ZM122.498 54.8736C122.345 54.8736 122.195 54.8282 122.068 54.7432C121.941 54.6581 121.841 54.5373 121.783 54.3959C121.724 54.2545 121.709 54.0989 121.739 53.9488C121.769 53.7987 121.842 53.6608 121.951 53.5526C122.059 53.4444 122.197 53.3707 122.347 53.3408C122.497 53.311 122.652 53.3263 122.794 53.3848C122.935 53.4434 123.056 53.5426 123.141 53.6698C123.226 53.7971 123.271 53.9467 123.271 54.0998C123.271 54.3049 123.19 54.5016 123.045 54.6467C122.9 54.7918 122.703 54.8734 122.498 54.8736ZM100.595 2.77039C100.289 2.77039 99.9899 2.86115 99.7354 3.03121C99.4809 3.20126 99.2825 3.44297 99.1654 3.72576C99.0483 4.00855 99.0176 4.31972 99.0774 4.61993C99.1371 4.92014 99.2845 5.1959 99.5009 5.41234C99.7173 5.62878 99.9931 5.77617 100.293 5.83589C100.594 5.8956 100.905 5.86495 101.187 5.74782C101.47 5.63068 101.712 5.43232 101.882 5.17782C102.052 4.92331 102.143 4.6241 102.143 4.31801C102.142 3.90769 101.979 3.51432 101.689 3.22419C101.399 2.93406 101.006 2.77085 100.595 2.77039ZM100.595 5.09181C100.442 5.09181 100.293 5.04643 100.165 4.9614C100.038 4.87638 99.9389 4.75552 99.8803 4.61413C99.8218 4.47273 99.8064 4.31715 99.8363 4.16704C99.8661 4.01694 99.9398 3.87906 100.048 3.77084C100.156 3.66262 100.294 3.58892 100.444 3.55906C100.594 3.52921 100.75 3.54453 100.891 3.6031C101.033 3.66167 101.154 3.76085 101.239 3.8881C101.324 4.01535 101.369 4.16496 101.369 4.31801C101.369 4.52317 101.287 4.71987 101.142 4.86494C100.997 5.01002 100.8 5.09161 100.595 5.09181ZM124.841 11.7982C124.535 11.7982 124.236 11.8889 123.981 12.059C123.727 12.229 123.529 12.4707 123.411 12.7535C123.294 13.0363 123.264 13.3475 123.323 13.6477C123.383 13.9479 123.53 14.2237 123.747 14.4401C123.963 14.6566 124.239 14.804 124.539 14.8637C124.84 14.9234 125.151 14.8927 125.434 14.7756C125.716 14.6585 125.958 14.4601 126.128 14.2056C126.298 13.9511 126.389 13.6519 126.389 13.3458C126.388 12.9355 126.225 12.5421 125.935 12.252C125.645 11.9618 125.252 11.7986 124.841 11.7982ZM124.841 14.1196C124.688 14.1196 124.539 14.0742 124.411 13.9892C124.284 13.9042 124.185 13.7833 124.126 13.6419C124.068 13.5005 124.052 13.3449 124.082 13.1948C124.112 13.0447 124.186 12.9068 124.294 12.7986C124.402 12.6904 124.54 12.6167 124.69 12.5868C124.84 12.557 124.996 12.5723 125.137 12.6309C125.279 12.6894 125.4 12.7886 125.485 12.9159C125.57 13.0431 125.615 13.1927 125.615 13.3458C125.615 13.551 125.533 13.7477 125.388 13.8927C125.243 14.0378 125.046 14.1194 124.841 14.1196ZM23.4501 23.6632C23.4501 23.3572 23.3593 23.0579 23.1892 22.8034C23.0192 22.5489 22.7775 22.3506 22.4947 22.2334C22.2119 22.1163 21.9007 22.0856 21.6005 22.1454C21.3003 22.2051 21.0246 22.3525 20.8081 22.5689C20.5917 22.7854 20.4443 23.0611 20.3846 23.3613C20.3249 23.6615 20.3555 23.9727 20.4726 24.2555C20.5898 24.5383 20.7881 24.78 21.0426 24.95C21.2971 25.1201 21.5964 25.2109 21.9024 25.2109C22.3128 25.2104 22.7061 25.0472 22.9963 24.7571C23.2864 24.4669 23.4496 24.0736 23.4501 23.6632ZM21.1286 23.6632C21.1286 23.5102 21.174 23.3606 21.259 23.2333C21.3441 23.1061 21.4649 23.0069 21.6063 22.9483C21.7477 22.8898 21.9033 22.8744 22.0534 22.9043C22.2035 22.9342 22.3414 23.0079 22.4496 23.1161C22.5578 23.2243 22.6315 23.3622 22.6614 23.5123C22.6912 23.6624 22.6759 23.818 22.6174 23.9594C22.5588 24.1008 22.4596 24.2216 22.3324 24.3066C22.2051 24.3917 22.0555 24.4371 21.9024 24.4371C21.6973 24.4368 21.5006 24.3553 21.3555 24.2102C21.2104 24.0651 21.1288 23.8684 21.1286 23.6632Z" fill="white"/>
<path d="M8.42488 52.561L9.57553 51.0474L8.84892 50.6357L8.10993 52.3304H8.08595L7.33535 50.6481L6.59636 51.0714L7.73464 52.5494V52.5734L5.9541 52.3428V53.1661L7.74624 52.9363V52.9603L6.59636 54.4375L7.28583 54.8739L8.07357 53.1661H8.09755L8.82416 54.8615L9.58714 54.4259L8.42488 52.9727V52.9479L10.2526 53.1661V52.3428L8.42488 52.585V52.561Z" fill="#D0342C"/>
<path d="M9.41117 4.82697L8.74879 5.67739L9.14575 5.92888L9.5992 4.94536H9.61313L10.0318 5.92191L10.4713 5.67042L9.80194 4.83394V4.82001L10.8543 4.94536V4.47102L9.80194 4.61108V4.59715L10.4643 3.72507L10.0457 3.48828L9.62087 4.46406H9.60617L9.17438 3.49525L8.74879 3.739L9.4042 4.59019V4.60411L8.37891 4.47102V4.94536L9.41117 4.81304V4.82697Z" fill="#D0342C"/>
<path d="M50.5339 4.87032V4.06246L48.741 4.30002V4.27603L49.8692 2.79187L49.1565 2.38794L48.4322 4.05086H48.4082L47.6723 2.39955L46.9473 2.81586L48.0639 4.26443V4.28842L46.3174 4.06246V4.87032L48.0755 4.64437V4.66836L46.9473 6.11693L47.6243 6.54484L48.3966 4.87032H48.4198L49.1325 6.53246L49.8808 6.10532L48.741 4.67996V4.65598L50.5339 4.87032Z" fill="#D0342C"/>
<path d="M107.449 27.7325L108.423 26.4518L107.808 26.1036L107.183 27.5375H107.162L106.528 26.1137L105.902 26.472L106.865 27.7224V27.7426L105.359 27.5476V28.244L106.875 28.0498V28.0707L105.902 29.3196L106.486 29.6887L107.152 28.244H107.172L107.787 29.6786L108.433 29.3095L107.449 28.0807V28.0598L108.996 28.244V27.5476L107.449 27.7526V27.7325Z" fill="#D0342C"/>
<path d="M1.54762 116.779C2.40235 116.779 3.09524 116.086 3.09524 115.231C3.09524 114.376 2.40235 113.683 1.54762 113.683C0.692893 113.683 0 114.376 0 115.231C0 116.086 0.692893 116.779 1.54762 116.779Z" fill="white"/>
<path d="M8.51163 113.683H6.1902C5.77974 113.683 5.3861 113.846 5.09587 114.136C4.80563 114.427 4.64258 114.82 4.64258 115.231C4.64258 115.641 4.80563 116.035 5.09587 116.325C5.3861 116.615 5.77974 116.778 6.1902 116.778H8.51163C8.92208 116.778 9.31572 116.615 9.60596 116.325C9.89619 116.035 10.0592 115.641 10.0592 115.231C10.0592 114.82 9.89619 114.427 9.60596 114.136C9.31572 113.846 8.92208 113.683 8.51163 113.683ZM123.809 113.683H121.488C121.077 113.683 120.684 113.846 120.393 114.136C120.103 114.427 119.94 114.82 119.94 115.231C119.94 115.641 120.103 116.035 120.393 116.325C120.684 116.615 121.077 116.778 121.488 116.778H123.809C124.22 116.778 124.613 116.615 124.904 116.325C125.194 116.035 125.357 115.641 125.357 115.231C125.357 114.82 125.194 114.427 124.904 114.136C124.613 113.846 124.22 113.683 123.809 113.683Z" fill="white"/>
<path d="M128.452 116.779C129.307 116.779 130 116.086 130 115.231C130 114.376 129.307 113.683 128.452 113.683C127.597 113.683 126.904 114.376 126.904 115.231C126.904 116.086 127.597 116.779 128.452 116.779Z" fill="white"/>
<path d="M91.4283 119.874H84.9997C84.6107 119.905 84.2476 120.081 83.9829 120.368C83.7182 120.655 83.5711 121.031 83.5711 121.421C83.5711 121.811 83.7182 122.187 83.9829 122.474C84.2476 122.761 84.6107 122.938 84.9997 122.969H91.4283C91.8174 122.938 92.1804 122.761 92.4452 122.474C92.7099 122.187 92.8569 121.811 92.8569 121.421C92.8569 121.031 92.7099 120.655 92.4452 120.368C92.1804 120.081 91.8174 119.905 91.4283 119.874ZM44.9998 119.874H38.5712C38.1821 119.905 37.8191 120.081 37.5543 120.368C37.2896 120.655 37.1426 121.031 37.1426 121.421C37.1426 121.811 37.2896 122.187 37.5543 122.474C37.8191 122.761 38.1821 122.938 38.5712 122.969H44.9998C45.3888 122.938 45.7519 122.761 46.0166 122.474C46.2813 122.187 46.4283 121.811 46.4283 121.421C46.4283 121.031 46.2813 120.655 46.0166 120.368C45.7519 120.081 45.3888 119.905 44.9998 119.874ZM80.4759 119.874H49.5236C49.1131 119.874 48.7195 120.037 48.4292 120.327C48.139 120.617 47.9759 121.011 47.9759 121.421C47.9759 121.832 48.139 122.225 48.4292 122.515C48.7195 122.806 49.1131 122.969 49.5236 122.969H61.8581V124.516H55.714C55.3036 124.516 54.9099 124.679 54.6197 124.97C54.3295 125.26 54.1664 125.654 54.1664 126.064C54.1664 126.474 54.3295 126.868 54.6197 127.158C54.9099 127.449 55.3036 127.612 55.714 127.612H75.0593C75.4697 127.612 75.8634 127.449 76.1536 127.158C76.4438 126.868 76.6069 126.474 76.6069 126.064C76.6069 125.654 76.4438 125.26 76.1536 124.97C75.8634 124.679 75.4697 124.516 75.0593 124.516H68.1414V122.969H80.4759C80.8864 122.969 81.28 122.806 81.5703 122.515C81.8605 122.225 82.0236 121.832 82.0236 121.421C82.0236 121.011 81.8605 120.617 81.5703 120.327C81.28 120.037 80.8864 119.874 80.4759 119.874Z" fill="#D0342C"/>
<path d="M81.5 51.5L50.5 82.5" stroke="#D0342C" stroke-width="2" stroke-linecap="round" stroke-linejoin="round"/>
<path d="M50.5 51.5L81.5 82.5" stroke="#D0342C" stroke-width="2" stroke-linecap="round" stroke-linejoin="round"/>
</g>
<defs>
<clipPath id="clip0_1767_2097">
<rect width="130" height="130" fill="white"/>
</clipPath>
</defs>
</svg>
