<svg width="65" height="70" viewBox="0 0 65 70" fill="none" xmlns="http://www.w3.org/2000/svg">
<path d="M2.3142 70C0.570257 69.3598 -0.00472273 68.1033 2.91721e-05 66.2777C0.0348764 45.3131 0.0348764 24.3501 2.91721e-05 3.3887C2.91721e-05 2.3076 0.247128 1.35452 1.12623 0.648005C1.49537 0.349291 1.93225 0.145404 2.39864 0.0541857C2.86503 -0.0370322 3.34672 -0.0128007 3.80155 0.12476C4.25639 0.26232 4.6705 0.509017 5.00766 0.843262C5.34482 1.17751 5.59475 1.58911 5.73557 2.04206C5.80617 2.30582 5.8617 2.57337 5.90189 2.84341H10.4542C18.024 2.84341 25.1851 4.32756 31.6382 8.47179C34.3895 10.2357 37.1361 11.9712 40.1916 13.1281C45.5087 15.1291 51.2125 15.8961 56.8708 15.3709C58.4769 15.2334 60.0688 14.8968 61.6702 14.6597C62.0966 14.5577 62.5441 14.589 62.9521 14.7493C63.3601 14.9096 63.7089 15.1912 63.9511 15.5559C64.2134 15.8935 64.3596 16.3064 64.3682 16.7334C64.3768 17.1605 64.2472 17.5789 63.9986 17.9267C58.7193 25.2906 52.4373 31.4974 43.7983 34.8546C38.7945 36.8034 33.7243 36.8129 28.5922 35.2576C23.2662 33.5766 17.563 33.4909 12.1887 35.011C10.146 35.5895 8.1804 36.4109 6.33431 37.4577C6.1643 37.5448 6.02655 37.6837 5.94109 37.8543C5.85563 38.0248 5.82692 38.2181 5.85912 38.4061C5.85912 47.7282 5.85912 57.0457 5.88288 66.382C5.88288 68.1839 5.26038 69.4025 3.53544 70H2.3142Z" fill="#F47923"/>
</svg>
