<svg width="23" height="24" viewBox="0 0 23 24" fill="none" xmlns="http://www.w3.org/2000/svg">
<path d="M3.37004 11.1244V3.20229C3.33789 2.53491 3.5265 1.87554 3.90668 1.32619C4.28687 0.77684 4.83743 0.368141 5.47319 0.163331C5.81835 0.0588469 6.17714 0.00632365 6.53775 0.0074866H14.7946C15.0891 0.00020193 15.382 0.054153 15.6546 0.165926C15.9272 0.2777 16.1737 0.444862 16.3784 0.656837C18.3258 2.60489 20.2731 4.57892 22.2465 6.52697C22.4591 6.73665 22.6264 6.98778 22.7381 7.26478C22.8497 7.54179 22.9033 7.83878 22.8956 8.13736V20.7867C22.9234 21.5379 22.6743 22.2732 22.1955 22.8527C21.7168 23.4322 21.0419 23.8154 20.2991 23.9296H3.18829C2.46164 23.9772 1.74206 23.7621 1.16063 23.3235C0.57921 22.8849 0.174628 22.2519 0.0205843 21.54C-0.00686143 21.2896 -0.00686143 21.037 0.0205843 20.7867V14.3451C-0.00684074 13.6276 0.220617 12.9235 0.662628 12.3577C1.10464 11.7919 1.73265 11.401 2.43531 11.2542C2.74442 11.1947 3.05642 11.1513 3.37004 11.1244ZM14.5349 1.6958H6.58968C6.37906 1.67074 6.16551 1.69381 5.96509 1.76326C5.76467 1.83272 5.58262 1.94676 5.43264 2.09679C5.28266 2.24682 5.16867 2.42894 5.09923 2.62943C5.0298 2.82991 5.00674 3.04355 5.03179 3.25424V11.1763H9.67949C10.016 11.1384 10.3556 11.1384 10.6921 11.1763C11.3843 11.3555 11.993 11.7692 12.4144 12.3471C12.8358 12.9249 13.0438 13.6311 13.003 14.3451C13.003 16.3451 13.003 18.3451 13.003 20.3451C13.0417 21.001 12.9353 21.6572 12.6914 22.2672H19.6759C19.8786 22.2859 20.0828 22.261 20.275 22.1943C20.4673 22.1276 20.643 22.0206 20.7905 21.8804C20.938 21.7402 21.0539 21.5701 21.1304 21.3815C21.2068 21.1929 21.2421 20.9901 21.2338 20.7867V8.37112H17.7026C17.2817 8.38954 16.8616 8.32017 16.469 8.16744C16.0763 8.0147 15.7197 7.78194 15.4218 7.48393C15.1239 7.18593 14.8912 6.8292 14.7385 6.4364C14.5858 6.0436 14.5165 5.62333 14.5349 5.20229V1.6958ZM6.45986 22.3192H9.70546C9.90748 22.3313 10.1097 22.2996 10.2983 22.2261C10.4869 22.1527 10.6574 22.0393 10.798 21.8937C10.9386 21.748 11.0461 21.5737 11.1129 21.3826C11.1798 21.1916 11.2046 20.9883 11.1855 20.7867V14.3451C11.201 14.1433 11.1728 13.9405 11.1026 13.7507C11.0324 13.5608 10.922 13.3884 10.779 13.2453C10.6359 13.1022 10.4635 12.9917 10.2737 12.9215C10.084 12.8513 9.88123 12.8231 9.67949 12.8387H3.21426C3.01014 12.8225 2.80498 12.8513 2.61319 12.923C2.4214 12.9947 2.24763 13.1076 2.10409 13.2536C1.96056 13.3997 1.85074 13.5754 1.78236 13.7685C1.71399 13.9615 1.6887 14.1672 1.7083 14.3711C1.7083 16.501 1.7083 18.6568 1.7083 20.7867C1.68389 20.9916 1.70582 21.1993 1.77248 21.3946C1.83914 21.5898 1.94882 21.7676 2.0934 21.9147C2.23799 22.0618 2.41379 22.1746 2.6078 22.2446C2.80181 22.3146 3.00907 22.3401 3.21426 22.3192H6.45986ZM16.2746 2.8906V3.12437C16.2746 3.82567 16.2746 4.55294 16.2746 5.25424C16.2635 5.44592 16.2927 5.63779 16.3603 5.81752C16.4278 5.99725 16.5321 6.16086 16.6666 6.29784C16.8011 6.43482 16.9628 6.54215 17.1412 6.61292C17.3196 6.68369 17.5108 6.71635 17.7026 6.70879H20.0395L16.2746 2.8906Z" fill="#C4C4C4"/>
<path d="M4.74572 13.7734C5.01087 13.8529 5.27099 13.9483 5.52466 14.0592L9.36745 16.3189C9.61604 16.4329 9.8267 16.6158 9.97439 16.846C10.1221 17.0762 10.2006 17.344 10.2006 17.6176C10.2006 17.8911 10.1221 18.1589 9.97439 18.3892C9.8267 18.6194 9.61604 18.8023 9.36745 18.9163L5.49869 21.202C5.28403 21.3388 5.03618 21.4146 4.78173 21.4213C4.52727 21.4279 4.27581 21.3651 4.05432 21.2397C3.83283 21.1142 3.64965 20.9308 3.52445 20.7091C3.39924 20.4874 3.33673 20.2358 3.34362 19.9812C3.34362 18.4228 3.34362 16.8643 3.34362 15.3319C3.32953 15.1366 3.35499 14.9405 3.41848 14.7553C3.48197 14.5701 3.58218 14.3997 3.7131 14.2541C3.84402 14.1086 4.00296 13.991 4.1804 13.9084C4.35784 13.8258 4.55011 13.7799 4.74572 13.7734ZM5.03133 15.7215V19.4617L8.17307 17.5916L5.03133 15.7215Z" fill="#C4C4C4"/>
</svg>
