<svg width="30" height="30" viewBox="0 0 30 30" fill="none" xmlns="http://www.w3.org/2000/svg">
<path d="M30.0008 11.0165C29.8872 11.599 29.8114 12.1915 29.653 12.7615C29.1617 14.5326 28.1422 16.1118 26.7304 17.2885C25.3187 18.4653 23.5818 19.1836 21.7514 19.3478C21.2859 19.3881 20.8148 19.3691 20.3481 19.403C20.2107 19.4131 20.0442 19.4763 19.9515 19.5727C19.3357 20.214 18.6401 20.738 17.8349 21.1173C17.7543 21.1576 17.6447 21.2571 17.6455 21.3285C17.6539 22.4571 17.5536 23.5938 17.8421 24.7091C18.2215 26.1744 18.9899 27.3908 20.1474 28.3582C20.4473 28.6081 20.6266 28.9011 20.5452 29.301C20.4573 29.7331 20.1019 30.0059 19.6255 29.9999C17.577 29.9733 15.7227 29.355 14.1191 28.0796C11.7815 26.2186 10.6076 23.7707 10.6128 20.7795C10.6128 20.32 10.5193 19.983 10.1618 19.6646C9.61169 19.1744 9.21633 18.5493 8.91004 17.8773C8.82944 17.7032 8.74682 17.6222 8.54369 17.6355C7.55146 17.6923 6.54392 17.6439 5.56942 17.8036C3.98314 18.0627 2.69388 18.9092 1.64523 20.1277C1.49974 20.2974 1.29782 20.4574 1.09027 20.5272C0.542163 20.7114 -0.00312089 20.2639 0.000506277 19.6484C0.0101787 17.9394 0.441006 16.3388 1.37077 14.905C3.19161 12.1008 5.79148 10.6582 9.13936 10.6187C9.64837 10.6126 10.0284 10.5207 10.3831 10.1205C10.8639 9.57714 11.4934 9.2051 12.1515 8.8915C12.2386 8.85119 12.353 8.73672 12.353 8.65772C12.3442 7.61495 12.4361 6.56816 12.21 5.53426C11.8755 4.00257 11.1156 2.72615 9.93048 1.70502C9.20424 1.07783 9.25422 0.486112 10.076 0H11.0134C11.088 0.0173324 11.1621 0.0403078 11.2375 0.0507879C14.7639 0.511103 17.2497 2.37494 18.6961 5.61327C19.2672 6.89183 19.4316 8.25343 19.3998 9.64405C19.397 9.77102 19.4538 9.93749 19.5433 10.0221C20.2006 10.6372 20.7375 11.3695 21.1263 12.1814C21.1666 12.2665 21.3081 12.3519 21.4048 12.3543C21.9904 12.3697 22.5768 12.3737 23.162 12.358C24.9204 12.3108 26.4551 11.6989 27.7447 10.4974C27.9938 10.2656 28.213 10.0012 28.4452 9.75046C28.8079 9.35867 29.3592 9.31997 29.7199 9.6775C29.8332 9.79037 29.9077 9.94273 29.9996 10.077L30.0008 11.0165ZM12.6553 14.9981C12.6542 15.4614 12.7904 15.9147 13.0468 16.3006C13.3031 16.6865 13.6681 16.9877 14.0955 17.1663C14.523 17.3448 14.9938 17.3926 15.4484 17.3036C15.903 17.2147 16.3211 16.9929 16.6497 16.6664C16.9784 16.3399 17.2029 15.9233 17.2949 15.4692C17.3869 15.0151 17.3423 14.544 17.1666 14.1152C16.991 13.6865 16.6923 13.3195 16.3081 13.0605C15.924 12.8016 15.4718 12.6623 15.0085 12.6603C14.3869 12.6594 13.7902 12.905 13.3491 13.3431C12.9081 13.7813 12.6586 14.3764 12.6553 14.9981Z" fill="#F47923"/>
</svg>
