<svg width="17" height="24" viewBox="0 0 17 24" fill="none" xmlns="http://www.w3.org/2000/svg">
<path d="M12.664 24.0078H8.68545C8.52378 24.0027 8.36873 23.9425 8.2461 23.8371L0.191366 15.7883C0.102833 15.7129 0.0425815 15.6097 0.0205078 15.4956L0.0205078 11.9834H0.435449C2.0464 11.9834 3.68175 11.9834 5.31711 11.9834C6.17006 11.9887 7.00591 11.7445 7.72157 11.2807C8.43723 10.817 9.0014 10.154 9.34447 9.37367L9.49092 9.00781H0.0205078V6.00781H9.46651C9.46651 5.86147 9.46651 5.73952 9.46651 5.64196C9.11378 4.84156 8.53107 4.16389 7.79233 3.69491C7.05358 3.22593 6.19207 2.98679 5.31711 3.00781C3.70616 3.00781 2.0708 3.00781 0.435449 3.00781H0.0205078V0.0078125H16.5205V2.98342H11.2483C11.9067 3.89024 12.3795 4.91802 12.6396 6.00781H16.5205V8.98342H12.6884C12.2371 10.9532 11.0456 12.6744 9.36019 13.7911C7.67479 14.9078 5.62439 15.3347 3.63293 14.9834L12.664 24.0078Z" fill="#C4C4C4"/>
</svg>
