<svg width="168" height="168" viewBox="0 0 168 168" fill="none" xmlns="http://www.w3.org/2000/svg">
<path d="M131.298 99.1358C130.924 99.1361 130.555 99.0566 130.214 98.9027C129.874 98.7488 129.57 98.5239 129.324 98.2433C126.613 95.1568 123.276 92.6837 119.535 90.989C115.793 89.2942 111.733 88.4168 107.625 88.4153C101.483 88.4153 95.3772 90.4313 90.4422 94.0905C90.1654 94.2956 89.8509 94.4442 89.5166 94.5278C89.1824 94.6113 88.835 94.6283 88.4942 94.5776C88.1535 94.5269 87.826 94.4095 87.5306 94.2323C87.2352 94.055 86.9775 93.8213 86.7724 93.5445C86.5673 93.2677 86.4187 92.9532 86.3352 92.619C86.2516 92.2848 86.2347 91.9373 86.2854 91.5966C86.3361 91.2558 86.4534 90.9284 86.6307 90.6329C86.8079 90.3375 87.0416 90.0799 87.3184 89.8748C93.204 85.5368 100.319 83.1884 107.631 83.1705C117.448 83.1705 126.793 87.402 133.277 94.7783C133.608 95.1587 133.823 95.6263 133.896 96.1254C133.969 96.6245 133.897 97.134 133.688 97.5933C133.479 98.0525 133.143 98.4421 132.719 98.7156C132.296 98.9891 131.802 99.1349 131.298 99.1358Z" fill="#F04C4D"/>
<path d="M70.3341 75.9202C69.8894 75.9203 69.452 75.8073 69.0629 75.592C68.6739 75.3767 68.3459 75.0661 68.1097 74.6893C67.8735 74.3125 67.737 73.8819 67.7128 73.4378C67.6887 72.9938 67.7777 72.5509 67.9716 72.1507C69.8775 68.2217 70.8701 63.9124 70.8748 59.5455C70.8748 54.4845 69.5361 49.4865 67.0108 45.108C66.8358 44.8093 66.7215 44.479 66.6746 44.136C66.6277 43.793 66.6491 43.4441 66.7376 43.1094C66.8261 42.7748 66.9799 42.4609 67.1902 42.1859C67.4005 41.9109 67.6631 41.6802 67.9629 41.5071C68.2627 41.334 68.5937 41.2219 68.937 41.1773C69.2803 41.1327 69.6291 41.1564 69.9632 41.2471C70.2973 41.3378 70.6101 41.4937 70.8837 41.7058C71.1573 41.9179 71.3862 42.182 71.5573 42.483C74.3419 47.3125 75.9025 52.75 76.1029 58.3211C76.3033 63.8923 75.1375 69.4279 72.7071 74.445C72.4891 74.8882 72.1512 75.2614 71.7317 75.5222C71.3122 75.7829 70.828 75.9209 70.3341 75.9202Z" fill="#499ED7"/>
<path d="M25.2943 135.707L58.9205 71.5155C59.3027 70.786 59.8511 70.1566 60.5215 69.6782C61.1918 69.1999 61.9653 68.8859 62.7794 68.7617C63.5935 68.6375 64.4254 68.7066 65.2079 68.9633C65.9904 69.2201 66.7015 69.6573 67.2838 70.2397L94.3055 97.2615C94.8879 97.8438 95.3252 98.5549 95.582 99.3374C95.8387 100.12 95.9078 100.952 95.7836 101.766C95.6594 102.58 95.3454 103.353 94.8671 104.024C94.3887 104.694 93.7593 105.243 93.0298 105.625L28.8381 139.251C28.3425 139.511 27.7768 139.605 27.2236 139.521C26.6704 139.437 26.1587 139.178 25.763 138.782C25.3673 138.387 25.1084 137.875 25.0241 137.322C24.9398 136.768 25.0345 136.203 25.2943 135.707Z" fill="#FFCC5C"/>
<path d="M94.3062 97.2615L67.2844 70.2397C66.7021 69.6573 65.991 69.2201 65.2085 68.9633C64.4261 68.7066 63.5941 68.6375 62.78 68.7617C61.9659 68.8859 61.1924 69.1999 60.5221 69.6782C59.8517 70.1566 59.3033 70.786 58.9212 71.5155L58.6272 72.0825L68.4604 81.9157C70.2076 83.6625 71.5193 85.7959 72.2896 88.1433C73.0599 90.4908 73.2671 92.9866 72.8945 95.4289C72.522 97.8713 71.5801 100.192 70.1449 102.203C68.7098 104.214 66.8217 105.859 64.6332 107.005L31.1487 124.546L25.3002 135.707C25.0403 136.203 24.9457 136.768 25.03 137.322C25.1143 137.875 25.3732 138.387 25.7688 138.782C26.1645 139.178 26.6763 139.437 27.2295 139.521C27.7827 139.605 28.3483 139.511 28.8439 139.251L93.0357 105.625C93.7648 105.242 94.3937 104.693 94.8715 104.023C95.3494 103.352 95.6628 102.579 95.7865 101.765C95.9102 100.95 95.8406 100.119 95.5835 99.3364C95.3263 98.5542 94.8887 97.8434 94.3062 97.2615Z" fill="#F7B546"/>
<path d="M41.6324 132.547L48.2106 129.103L31.4894 123.879L29.0166 128.604L41.6324 132.547ZM35.5949 116.041L59.1149 123.391L65.6931 119.947L38.0729 111.316L35.5949 116.041ZM42.1731 103.477L76.5921 114.235L83.1704 110.791L44.6511 98.7525L42.1731 103.477ZM48.7566 90.9195L93.7649 104.984C94.4964 104.415 95.0593 103.657 95.3931 102.793C95.727 101.928 95.8193 100.989 95.6601 100.075L51.2346 86.1945L48.7566 90.9195ZM55.3349 78.3615L84.5249 87.4807L76.5238 79.485L57.8076 73.6365L55.3349 78.3615Z" fill="#F47423"/>
<path d="M95.6548 100.076L72.9853 92.9933C72.9906 94.7783 72.7176 96.5423 72.1348 98.2275L93.7648 104.984C94.4998 104.396 95.0248 103.661 95.3556 102.858L95.4291 102.674C95.7247 101.841 95.8024 100.947 95.6548 100.076ZM65.6931 119.947L49.5493 114.902L42.9711 118.346L59.1149 123.391L60.6479 122.588L65.6931 119.947ZM68.4546 81.9158C68.6803 82.1415 68.8168 82.404 69.0216 82.6403L84.5196 87.486L76.5186 79.485L61.2463 74.7128L68.4546 81.9158ZM29.0166 128.604L41.6323 132.547L48.2106 129.103L32.0669 124.058L31.1429 124.546L29.0166 128.604ZM64.6273 107.006L60.4536 109.195L76.5973 114.24L83.1756 110.796L66.6381 105.63C65.9818 106.103 65.3676 106.617 64.6273 107.006Z" fill="#ED5D25"/>
<path d="M41.9995 67.4205C40.4818 67.415 38.9978 66.9715 37.7259 66.1434C36.4539 65.3152 35.448 64.1376 34.8288 62.7518C34.2096 61.3661 34.0036 59.8311 34.2353 58.3311C34.4671 56.8311 35.1268 55.4298 36.1353 54.2955C34.8374 52.8549 34.1191 50.9846 34.1191 49.0455C34.1191 47.1065 34.8374 45.2362 36.1353 43.7955C35.1268 42.6612 34.4671 41.26 34.2353 39.76C34.0036 38.26 34.2096 36.725 34.8288 35.3392C35.448 33.9535 36.4539 32.7758 37.7259 31.9477C38.9978 31.1195 40.4818 30.6761 41.9995 30.6705C42.6957 30.6705 43.3634 30.9471 43.8557 31.4394C44.348 31.9317 44.6245 32.5993 44.6245 33.2955C44.6245 33.9917 44.348 34.6594 43.8557 35.1517C43.3634 35.644 42.6957 35.9205 41.9995 35.9205C41.3033 35.9205 40.6357 36.1971 40.1434 36.6894C39.6511 37.1817 39.3745 37.8493 39.3745 38.5455C39.3745 39.2417 39.6511 39.9094 40.1434 40.4017C40.6357 40.894 41.3033 41.1705 41.9995 41.1705C42.6957 41.1705 43.3634 41.4471 43.8557 41.9394C44.348 42.4317 44.6245 43.0993 44.6245 43.7955C44.6245 44.4917 44.348 45.1594 43.8557 45.6517C43.3634 46.144 42.6957 46.4205 41.9995 46.4205C41.3033 46.4205 40.6357 46.6971 40.1434 47.1894C39.6511 47.6817 39.3745 48.3493 39.3745 49.0455C39.3745 49.7417 39.6511 50.4094 40.1434 50.9017C40.6357 51.394 41.3033 51.6705 41.9995 51.6705C42.6957 51.6705 43.3634 51.9471 43.8557 52.4394C44.348 52.9317 44.6245 53.5993 44.6245 54.2955C44.6245 54.9917 44.348 55.6594 43.8557 56.1517C43.3634 56.644 42.6957 56.9205 41.9995 56.9205C41.3033 56.9205 40.6357 57.1971 40.1434 57.6894C39.6511 58.1817 39.3745 58.8493 39.3745 59.5455C39.3745 60.2417 39.6511 60.9094 40.1434 61.4017C40.6357 61.894 41.3033 62.1705 41.9995 62.1705C42.6957 62.1705 43.3634 62.4471 43.8557 62.9394C44.348 63.4317 44.6245 64.0993 44.6245 64.7955C44.6245 65.4917 44.348 66.1594 43.8557 66.6517C43.3634 67.144 42.6957 67.4205 41.9995 67.4205Z" fill="#92CA62"/>
<path d="M42.1736 46.3838C42.6805 46.352 43.1668 46.1717 43.5719 45.8655C43.977 45.5593 44.2832 45.1407 44.4521 44.6618C43.9459 44.6956 43.4605 44.8766 43.0557 45.1826C42.651 45.4885 42.3444 45.906 42.1736 46.3838ZM44.4521 34.1618C43.9459 34.1956 43.4605 34.3766 43.0557 34.6826C42.651 34.9885 42.3444 35.406 42.1736 35.8838C42.6805 35.852 43.1668 35.6717 43.5719 35.3655C43.977 35.0593 44.2832 34.6407 44.4521 34.1618ZM36.7504 57.75C36.7504 55.734 37.5116 53.8965 38.7611 52.5C37.4632 51.0594 36.745 49.1891 36.745 47.25C36.745 45.311 37.4632 43.4407 38.7611 42C37.4294 40.518 36.7116 38.5846 36.7535 36.5925C36.7954 34.6005 37.5939 32.699 38.9869 31.2743C37.8267 31.7574 36.7988 32.511 35.9891 33.4722C35.1794 34.4334 34.6114 35.5743 34.3324 36.7997C34.0534 38.0252 34.0715 39.2995 34.3853 40.5165C34.6991 41.7335 35.2994 42.8578 36.1361 43.7955C34.8371 45.2356 34.1182 47.1062 34.1182 49.0455C34.1182 50.9849 34.8371 52.8555 36.1361 54.2955C35.1276 55.4298 34.4679 56.8311 34.2362 58.3311C34.0044 59.8311 34.2105 61.3661 34.8296 62.7519C35.4488 64.1376 36.4547 65.3153 37.7267 66.1434C38.9987 66.9715 40.4826 67.415 42.0004 67.4205C42.5495 67.4175 43.0836 67.2406 43.526 66.9152C43.9683 66.5898 44.2962 66.1326 44.4626 65.6093C42.4051 65.5668 40.446 64.7205 39.0046 63.2516C37.5632 61.7828 36.7541 59.808 36.7504 57.75Z" fill="#71BC58"/>
<path d="M42.1729 56.8837C42.6788 56.8509 43.1639 56.6702 43.568 56.3641C43.9722 56.0579 44.2775 55.6399 44.4461 55.1617C43.9406 55.1959 43.4561 55.3771 43.0522 55.6831C42.6483 55.989 42.3426 56.4064 42.1729 56.8837Z" fill="#71BC58"/>
<path d="M114.093 72.9803C112.077 72.9803 110.061 72.2138 108.523 70.6808C108.03 70.1885 107.752 69.5207 107.752 68.8241C107.751 68.1275 108.028 67.4593 108.52 66.9664C109.012 66.4735 109.68 66.1963 110.377 66.1958C111.073 66.1953 111.741 66.4715 112.234 66.9638C112.478 67.2075 112.768 67.4007 113.087 67.5325C113.406 67.6643 113.747 67.732 114.092 67.7317C114.437 67.7315 114.778 67.6633 115.097 67.5311C115.416 67.3989 115.705 67.2052 115.949 66.9611C116.192 66.7171 116.386 66.4274 116.517 66.1086C116.649 65.7899 116.717 65.4483 116.717 65.1034C116.716 64.7585 116.648 64.417 116.516 64.0984C116.384 63.7799 116.19 63.4905 115.946 63.2468C115.7 63.0036 115.505 62.7142 115.372 62.3952C115.239 62.0762 115.17 61.7339 115.17 61.3883C115.17 61.0426 115.239 60.7003 115.372 60.3813C115.505 60.0623 115.7 59.7729 115.946 59.5298C116.97 58.506 118.634 58.506 119.658 59.5298C120.153 60.0079 120.816 60.2725 121.504 60.2665C122.192 60.2605 122.851 59.9845 123.338 59.4978C123.824 59.0111 124.1 58.3527 124.106 57.6644C124.112 56.9762 123.848 56.3131 123.37 55.818C123.124 55.5749 122.929 55.2854 122.796 54.9664C122.662 54.6474 122.594 54.3052 122.594 53.9595C122.594 53.6138 122.662 53.2716 122.796 52.9526C122.929 52.6336 123.124 52.3441 123.37 52.101C123.862 51.6089 124.529 51.3324 125.225 51.3324C125.921 51.3324 126.589 51.6089 127.081 52.101C127.583 52.5759 128.247 52.8405 128.937 52.8405C129.628 52.8405 130.292 52.5759 130.793 52.101C131.038 51.8576 131.232 51.568 131.363 51.2489C131.495 50.9298 131.562 50.5877 131.56 50.2425C131.561 49.8982 131.494 49.5571 131.362 49.239C131.231 48.9208 131.037 48.632 130.793 48.3893C130.549 48.1455 130.355 47.8561 130.223 47.5376C130.091 47.219 130.023 46.8775 130.022 46.5326C130.022 46.1877 130.09 45.8461 130.222 45.5274C130.353 45.2086 130.547 44.9189 130.79 44.6749C131.034 44.4308 131.324 44.2372 131.642 44.1049C131.961 43.9727 132.302 43.9045 132.647 43.9043C132.992 43.9041 133.334 43.9717 133.652 44.1035C133.971 44.2353 134.261 44.4285 134.505 44.6723C135.991 46.158 136.81 48.1373 136.81 50.2425C136.811 52.2563 136.041 54.1941 134.657 55.6571C133.273 57.12 131.381 57.9968 129.37 58.107C129.268 60.044 128.452 61.8747 127.081 63.2463C125.709 64.6179 123.879 65.4334 121.942 65.5358C121.837 67.4048 121.075 69.2475 119.647 70.6703C118.13 72.2138 116.109 72.9803 114.093 72.9803Z" fill="#AE89BE"/>
<path d="M116.813 59.5455C117.242 59.9663 117.803 60.225 118.402 60.2777C119 60.3304 119.599 60.1736 120.094 59.8343C119.952 59.7398 119.79 59.6768 119.664 59.5455C119.235 59.1248 118.673 58.866 118.075 58.8134C117.476 58.7607 116.878 58.9174 116.382 59.2568C116.524 59.3513 116.687 59.4195 116.813 59.5455ZM124.236 52.122C124.672 52.5307 125.233 52.7804 125.829 52.8309C126.424 52.8814 127.019 52.7297 127.518 52.4003C127.371 52.3058 127.213 52.248 127.087 52.122C126.658 51.7013 126.097 51.4425 125.498 51.3899C124.9 51.3372 124.302 51.4939 123.806 51.8333C123.948 51.9278 124.11 51.996 124.236 52.122ZM109.389 66.969C109.818 67.3898 110.38 67.6486 110.978 67.7012C111.577 67.7539 112.175 67.5971 112.671 67.2578C112.529 67.1633 112.366 67.1003 112.24 66.969C111.81 66.55 111.248 66.2928 110.65 66.2411C110.052 66.1895 109.454 66.3465 108.959 66.6855C109.101 66.78 109.263 66.843 109.389 66.969Z" fill="#9676B5"/>
<path d="M134.511 44.6932C134.081 44.2742 133.519 44.017 132.921 43.9653C132.323 43.9137 131.725 44.0707 131.229 44.4097C131.371 44.5042 131.534 44.5672 131.66 44.6932C133.146 46.179 133.965 48.1582 133.965 50.2635C133.966 52.2773 133.196 54.2151 131.812 55.6781C130.428 57.141 128.536 58.0178 126.525 58.128C126.423 60.065 125.608 61.8957 124.236 63.2673C122.864 64.6389 121.034 65.4544 119.097 65.5567C118.992 67.4257 118.23 69.2685 116.802 70.6912C115.637 71.8567 114.172 72.4342 112.66 72.7125C113.138 72.8017 113.6 72.9907 114.083 72.9907C116.097 72.995 118.035 72.2262 119.498 70.843C120.962 69.4597 121.838 67.5675 121.947 65.5567C123.884 65.4521 125.713 64.6359 127.084 63.2647C128.455 61.8936 129.272 60.0642 129.376 58.128C131.387 58.0191 133.28 57.1427 134.664 55.6794C136.048 54.2162 136.818 52.2777 136.815 50.2635C136.82 49.2286 136.618 48.2032 136.222 47.2469C135.827 46.2907 135.245 45.4226 134.511 44.6932Z" fill="#9676B5"/>
<path d="M84.9189 135.461C84.4634 135.46 84.0157 135.342 83.6199 135.116C83.2241 134.891 82.8937 134.566 82.6614 134.174C81.8808 132.867 81.4963 131.362 81.5546 129.841C81.6128 128.32 82.1113 126.848 82.9896 125.605C83.8678 124.361 85.088 123.399 86.5022 122.836C87.9164 122.272 89.4637 122.131 90.9564 122.43C91.5182 120.645 92.7152 119.049 94.4477 118.025C96.1749 116.996 98.1279 116.713 99.9864 117.075C100.564 115.222 101.792 113.668 103.478 112.67C104.366 112.138 105.351 111.789 106.376 111.642C107.401 111.495 108.445 111.554 109.447 111.815C111.484 112.334 113.201 113.621 114.272 115.427C114.447 115.724 114.563 116.053 114.612 116.394C114.66 116.736 114.641 117.084 114.556 117.419C114.47 117.753 114.319 118.067 114.112 118.343C113.904 118.62 113.645 118.852 113.348 119.028C113.051 119.204 112.722 119.319 112.38 119.368C112.038 119.417 111.69 119.398 111.356 119.312C111.021 119.226 110.707 119.075 110.431 118.868C110.155 118.661 109.922 118.401 109.746 118.104C109.484 117.654 109.093 117.292 108.624 117.066C108.155 116.839 107.629 116.758 107.113 116.832C106.598 116.907 106.116 117.133 105.73 117.484C105.344 117.834 105.072 118.291 104.948 118.797C104.862 119.13 104.843 119.478 104.893 119.818C104.942 120.159 105.059 120.486 105.236 120.782C105.524 121.376 105.578 122.056 105.388 122.688C105.198 123.321 104.778 123.859 104.211 124.196C103.643 124.533 102.97 124.645 102.324 124.51C101.677 124.374 101.106 124.001 100.721 123.464C100.364 122.866 99.785 122.434 99.1102 122.262C98.4354 122.09 97.7198 122.192 97.1199 122.546C96.522 122.903 96.0897 123.482 95.9176 124.157C95.7454 124.832 95.8474 125.547 96.2012 126.147C96.5562 126.747 96.6583 127.464 96.4851 128.139C96.3118 128.815 95.8773 129.393 95.2772 129.749C94.6771 130.104 93.9605 130.206 93.285 130.032C92.6096 129.859 92.0307 129.425 91.6757 128.825C91.5021 128.527 91.2704 128.267 90.9945 128.06C90.7185 127.854 90.4038 127.705 90.0692 127.622C89.5668 127.495 89.0381 127.52 88.5497 127.693C88.0613 127.866 87.635 128.18 87.3246 128.595C87.0141 129.009 86.8334 129.507 86.8052 130.024C86.7769 130.542 86.9025 131.056 87.1659 131.502C87.4022 131.899 87.529 132.352 87.5337 132.814C87.5383 133.277 87.4206 133.732 87.1924 134.134C86.9641 134.536 86.6336 134.871 86.2343 135.104C85.835 135.336 85.3812 135.46 84.9189 135.461Z" fill="#499ED7"/>
<path d="M85.627 134.18C85.0973 133.291 84.7483 132.306 84.5999 131.282C84.4515 130.258 84.5066 129.214 84.7622 128.212C85.0178 127.209 85.4687 126.266 86.0892 125.438C86.7097 124.61 87.4875 123.912 88.378 123.386C89.176 122.908 90.0475 122.603 90.94 122.435C89.0433 122.051 87.0714 122.39 85.4118 123.386C84.5206 123.911 83.7425 124.608 83.1225 125.436C82.5025 126.264 82.0529 127.207 81.7998 128.21C81.5412 129.213 81.4841 130.257 81.6319 131.281C81.7797 132.306 82.1294 133.291 82.6608 134.18C83.0179 134.776 83.5962 135.207 84.2697 135.379C84.9433 135.551 85.6576 135.45 86.257 135.098C86.3253 135.062 86.3568 134.993 86.4198 134.951C86.1053 134.751 85.8354 134.489 85.627 134.18ZM94.6518 128.819C94.4782 128.521 94.2466 128.262 93.9706 128.055C93.6946 127.849 93.3799 127.7 93.0453 127.617C92.7111 127.53 92.363 127.511 92.0213 127.561C91.6796 127.61 91.3513 127.728 91.0555 127.906C91.003 127.937 90.9715 127.99 90.9243 128.021C91.2235 128.231 91.4913 128.494 91.6803 128.819C92.0364 129.418 92.6157 129.851 93.291 130.024C93.9662 130.196 94.6822 130.093 95.2818 129.738C95.3343 129.707 95.35 129.649 95.4025 129.617C95.0986 129.407 94.8427 129.135 94.6518 128.819ZM93.9273 122.435C94.489 120.65 95.686 119.054 97.4185 118.031C99.1458 117.002 101.099 116.718 102.957 117.08C103.378 115.729 104.159 114.518 105.216 113.577C106.273 112.636 107.567 112.002 108.958 111.741C107.068 111.363 105.104 111.699 103.448 112.686C101.791 113.672 100.559 115.238 99.991 117.08C98.0909 116.696 96.1158 117.035 94.4523 118.031C92.7198 119.06 91.528 120.645 90.9663 122.43C91.9323 122.246 92.9298 122.23 93.9273 122.435ZM103.692 123.464C103.335 122.866 102.756 122.434 102.081 122.262C101.406 122.09 100.691 122.192 100.091 122.545C100.038 122.577 100.007 122.63 99.9595 122.666C100.259 122.876 100.521 123.134 100.721 123.47C101.077 124.067 101.656 124.499 102.33 124.671C103.004 124.842 103.719 124.738 104.317 124.383C104.37 124.351 104.385 124.294 104.433 124.262C104.133 124.051 103.881 123.779 103.692 123.464ZM112.717 118.109C112.542 117.812 112.309 117.553 112.033 117.346C111.757 117.139 111.443 116.989 111.109 116.904C110.775 116.819 110.427 116.801 110.086 116.851C109.745 116.901 109.417 117.018 109.121 117.196C109.068 117.227 109.037 117.28 108.99 117.311C109.289 117.521 109.557 117.784 109.746 118.109C110.102 118.708 110.681 119.141 111.356 119.314C112.031 119.486 112.747 119.383 113.347 119.028C113.4 118.997 113.426 118.944 113.478 118.913C113.17 118.703 112.91 118.429 112.717 118.109Z" fill="#2B8EC6"/>
<path d="M78.75 33.2955C81.6495 33.2955 84 30.945 84 28.0455C84 25.146 81.6495 22.7955 78.75 22.7955C75.8505 22.7955 73.5 25.146 73.5 28.0455C73.5 30.945 75.8505 33.2955 78.75 33.2955Z" fill="#AE89BE"/>
<path d="M120.75 33.2955C123.649 33.2955 126 30.945 126 28.0455C126 25.146 123.649 22.7955 120.75 22.7955C117.851 22.7955 115.5 25.146 115.5 28.0455C115.5 30.945 117.851 33.2955 120.75 33.2955Z" fill="#499ED7"/>
<path d="M141.75 85.7955C144.649 85.7955 147 83.445 147 80.5455C147 77.646 144.649 75.2955 141.75 75.2955C138.851 75.2955 136.5 77.646 136.5 80.5455C136.5 83.445 138.851 85.7955 141.75 85.7955Z" fill="#FFCC5C"/>
<path d="M21 106.796C23.8995 106.796 26.25 104.445 26.25 101.546C26.25 98.646 23.8995 96.2955 21 96.2955C18.1005 96.2955 15.75 98.646 15.75 101.546C15.75 104.445 18.1005 106.796 21 106.796Z" fill="#F04C4D"/>
<path d="M78.75 22.7955C78.0741 22.8 77.4055 22.9355 76.7812 23.1945C77.747 23.5859 78.574 24.2567 79.1562 25.1209C79.7385 25.9851 80.0495 27.0035 80.0495 28.0455C80.0495 29.0876 79.7385 30.1059 79.1562 30.9702C78.574 31.8344 77.747 32.5051 76.7812 32.8965C77.4055 33.1555 78.0741 33.291 78.75 33.2955C80.1424 33.2955 81.4777 32.7424 82.4623 31.7578C83.4469 30.7733 84 29.4379 84 28.0455C84 26.6531 83.4469 25.3178 82.4623 24.3332C81.4777 23.3487 80.1424 22.7955 78.75 22.7955Z" fill="#9676B5"/>
<path d="M120.75 22.7955C120.074 22.8 119.406 22.9355 118.781 23.1945C119.747 23.5859 120.574 24.2567 121.156 25.1209C121.738 25.9851 122.049 27.0035 122.049 28.0455C122.049 29.0876 121.738 30.1059 121.156 30.9702C120.574 31.8344 119.747 32.5051 118.781 32.8965C119.406 33.1555 120.074 33.291 120.75 33.2955C122.142 33.2955 123.478 32.7424 124.462 31.7578C125.447 30.7733 126 29.4379 126 28.0455C126 26.6531 125.447 25.3178 124.462 24.3332C123.478 23.3487 122.142 22.7955 120.75 22.7955Z" fill="#2B8EC6"/>
<path d="M141.75 75.2955C141.074 75.3 140.406 75.4355 139.781 75.6945C140.747 76.0859 141.574 76.7567 142.156 77.6209C142.738 78.4851 143.049 79.5035 143.049 80.5455C143.049 81.5876 142.738 82.6059 142.156 83.4702C141.574 84.3344 140.747 85.0051 139.781 85.3965C140.406 85.6555 141.074 85.791 141.75 85.7955C143.142 85.7955 144.478 85.2424 145.462 84.2578C146.447 83.2733 147 81.9379 147 80.5455C147 79.1531 146.447 77.8178 145.462 76.8332C144.478 75.8487 143.142 75.2955 141.75 75.2955Z" fill="#F7B546"/>
<path d="M21 96.2955C20.3241 96.3 19.6555 96.4355 19.0312 96.6945C19.997 97.0859 20.824 97.7567 21.4062 98.6209C21.9885 99.4851 22.2995 100.503 22.2995 101.546C22.2995 102.588 21.9885 103.606 21.4062 104.47C20.824 105.334 19.997 106.005 19.0312 106.397C19.6555 106.656 20.3241 106.791 21 106.796C22.3924 106.796 23.7277 106.242 24.7123 105.258C25.6969 104.273 26.25 102.938 26.25 101.546C26.25 100.153 25.6969 98.8178 24.7123 97.8332C23.7277 96.8487 22.3924 96.2955 21 96.2955Z" fill="#E13340"/>
<path d="M126 138.296C128.899 138.296 131.25 135.945 131.25 133.046C131.25 130.146 128.899 127.796 126 127.796C123.101 127.796 120.75 130.146 120.75 133.046C120.75 135.945 123.101 138.296 126 138.296Z" fill="#F04C4D"/>
<path d="M126 127.796C125.324 127.8 124.656 127.936 124.031 128.195C124.997 128.586 125.824 129.257 126.406 130.121C126.988 130.985 127.299 132.003 127.299 133.046C127.299 134.088 126.988 135.106 126.406 135.97C125.824 136.834 124.997 137.505 124.031 137.897C124.656 138.156 125.324 138.291 126 138.296C127.392 138.296 128.728 137.742 129.712 136.758C130.697 135.773 131.25 134.438 131.25 133.046C131.25 131.653 130.697 130.318 129.712 129.333C128.728 128.349 127.392 127.796 126 127.796Z" fill="#E13340"/>
<path d="M138.71 114.87C138.086 114.869 137.483 114.646 137.009 114.241C136.535 113.836 136.22 113.276 136.122 112.66C135.849 110.951 135.419 109.27 134.835 107.641C134.604 106.984 134.644 106.261 134.945 105.633C135.246 105.005 135.785 104.522 136.442 104.291C137.099 104.06 137.821 104.1 138.449 104.401C139.077 104.702 139.56 105.241 139.791 105.898C140.469 107.827 140.976 109.812 141.309 111.83C141.368 112.206 141.345 112.59 141.241 112.955C141.138 113.321 140.957 113.66 140.71 113.949C140.463 114.238 140.156 114.47 139.811 114.629C139.465 114.788 139.09 114.87 138.71 114.87Z" fill="#F04C4D"/>
<path d="M63.084 38.7607C62.4389 38.7617 61.8162 38.5242 61.3357 38.0939C60.6173 37.4536 59.8693 36.8475 59.094 36.2774C58.5553 35.8562 58.2023 35.2415 58.11 34.564C58.0177 33.8865 58.1933 33.1997 58.5997 32.6498C59.006 32.0998 59.6108 31.7301 60.2855 31.6193C60.9603 31.5085 61.6516 31.6653 62.2125 32.0564C63.1185 32.7256 63.9927 33.4369 64.8322 34.1879C65.2251 34.5429 65.5015 35.0085 65.625 35.5234C65.7485 36.0383 65.7134 36.5785 65.5243 37.0731C65.3352 37.5677 65.001 37.9936 64.5654 38.2948C64.1299 38.596 63.6135 38.7584 63.084 38.7607Z" fill="#499ED7"/>
<path d="M88.1688 78.0045C87.6545 78.0057 87.1512 77.8557 86.7214 77.5732C86.2916 77.2907 85.9542 76.8882 85.7512 76.4156C85.5482 75.9431 85.4885 75.4213 85.5795 74.9151C85.6705 74.4089 85.9082 73.9406 86.2631 73.5683C93.2498 66.257 97.1399 56.5281 97.1201 46.4153C97.1201 40.467 95.7393 34.4978 93.1353 29.1585C92.967 28.8472 92.8633 28.505 92.8306 28.1525C92.798 27.8001 92.8369 27.4446 92.9451 27.1076C93.0533 26.7706 93.2285 26.4589 93.4603 26.1914C93.692 25.9238 93.9755 25.7059 94.2937 25.5507C94.6118 25.3955 94.9581 25.3063 95.3116 25.2884C95.6651 25.2705 96.0186 25.3243 96.3508 25.4465C96.683 25.5687 96.987 25.7568 97.2446 25.9996C97.5023 26.2423 97.7081 26.5347 97.8498 26.859C100.815 32.9543 102.358 39.6425 102.365 46.4205C102.386 57.8808 97.977 68.9058 90.0588 77.1908C89.8168 77.4492 89.524 77.6548 89.1988 77.7949C88.8735 77.9349 88.5229 78.0063 88.1688 78.0045Z" fill="#92CA62"/>
<path d="M42 77.9205C43.4497 77.9205 44.625 76.7453 44.625 75.2955C44.625 73.8458 43.4497 72.6705 42 72.6705C40.5503 72.6705 39.375 73.8458 39.375 75.2955C39.375 76.7453 40.5503 77.9205 42 77.9205Z" fill="#92CA62"/>
</svg>
