<svg width="24" height="24" viewBox="0 0 24 24" fill="none" xmlns="http://www.w3.org/2000/svg">
<path d="M11.9868 24.0068C9.61847 24.0024 7.30457 23.2959 5.33696 21.9766C3.36935 20.6573 1.8362 18.7843 0.930936 16.5938C0.0256678 14.4033 -0.211158 11.9935 0.250336 9.66847C0.71183 7.34341 1.85097 5.20725 3.52403 3.52949C5.1971 1.85173 7.32913 0.707533 9.65115 0.241266C11.9732 -0.225001 14.3811 0.0075463 16.5713 0.90957C18.7614 1.81159 20.6355 3.34268 21.9573 5.30966C23.279 7.27664 23.9891 9.59139 23.998 11.9619C24.0039 13.5434 23.6974 15.1105 23.0962 16.5731C22.4949 18.0357 21.6108 19.3648 20.4945 20.4842C19.3783 21.6036 18.052 22.491 16.592 23.0956C15.1319 23.7001 13.5668 24.0098 11.9868 24.0068ZM21.7978 11.9843C21.7933 10.044 21.2147 8.14848 20.135 6.537C19.0552 4.92552 17.5227 3.67032 15.7309 2.92984C13.9391 2.18936 11.9683 1.99678 10.0672 2.37641C8.16617 2.75604 6.42007 3.69087 5.04933 5.0629C3.67858 6.43493 2.74463 8.18266 2.36535 10.0855C1.98608 11.9883 2.17848 13.961 2.91827 15.7545C3.65806 17.548 4.91208 19.0819 6.52205 20.1627C8.13202 21.2434 10.0258 21.8226 11.9643 21.827C13.2565 21.83 14.5365 21.5774 15.7309 21.0839C16.9253 20.5903 18.0105 19.8654 18.9242 18.9508C19.8379 18.0362 20.5622 16.95 21.0553 15.7545C21.5484 14.559 21.8008 13.2777 21.7978 11.9843Z" fill="#C4C4C4"/>
<path d="M10.9092 8.7484V5.42256C10.9376 5.18808 11.0437 4.96989 11.2106 4.80287C11.3774 4.63586 11.5954 4.52964 11.8297 4.50121C12.0926 4.46378 12.3601 4.52279 12.5829 4.66735C12.8057 4.81191 12.9688 5.03225 13.042 5.28772C13.0542 5.44479 13.0542 5.60257 13.042 5.75964C13.042 7.64728 13.042 9.53492 13.042 11.4001C13.0394 11.4854 13.0562 11.5703 13.0912 11.6482C13.1262 11.726 13.1785 11.7949 13.2441 11.8495L15.7137 14.2765C15.8529 14.3969 15.959 14.551 16.0219 14.7241C16.0848 14.8971 16.1023 15.0835 16.0729 15.2653C16.0349 15.459 15.9467 15.6393 15.817 15.788C15.6873 15.9367 15.5207 16.0486 15.3341 16.1124C15.1474 16.1762 14.9473 16.1896 14.7538 16.1514C14.5603 16.1131 14.3803 16.0245 14.2319 15.8945L13.4686 15.0181L11.3806 12.9282C11.228 12.7902 11.1084 12.6195 11.0306 12.4289C10.9529 12.2383 10.9191 12.0326 10.9316 11.8271V8.7484H10.9092Z" fill="#C4C4C4"/>
</svg>
